<?xml version="1.0" encoding="UTF-8"?>
<svg id="Layer_1" data-name="Layer 1" xmlns="http://www.w3.org/2000/svg" viewBox="0 0 250 250">
  <defs>
    <style>
      .cls-1 {
        fill: #414141;
      }

      .cls-2 {
        fill: #e58c8a;
      }

      .cls-3 {
        fill: none;
      }
    </style>
  </defs>
  <rect class="cls-3" width="250" height="250"/>
  <rect class="cls-3" width="250" height="250"/>
  <g>
    <circle class="cls-2" cx="141.54" cy="119.48" r="46.12"/>
    <g>
      <path class="cls-1" d="m78.08,152.98v-7.87h-21.25c-2.68,0-4.69-.61-6.03-1.82-1.34-1.21-2.01-2.86-2.01-4.95,0-.54.1-1.08.3-1.63.2-.55.49-1.13.89-1.74.4-.61.8-1.19,1.23-1.76.42-.56.95-1.26,1.57-2.07l22.43-30.01c1.47-1.98,2.67-3.41,3.62-4.3.95-.89,2.08-1.33,3.41-1.33,4.29,0,6.43,2.45,6.43,7.36v32.76h1.82c2.17,0,3.92.3,5.23.89,1.31.59,1.97,1.89,1.97,3.89,0,1.64-.54,2.83-1.61,3.58-1.07.75-2.68,1.12-4.83,1.12h-2.58v7.87c0,2.17-.48,3.79-1.44,4.85-.96,1.06-2.24,1.59-3.85,1.59s-2.86-.54-3.83-1.63-1.46-2.69-1.46-4.8Zm-18.2-17.35h18.2v-24.59l-18.2,24.59Z"/>
      <path class="cls-1" d="m146.65,127.92c0,4.63-.28,8.61-.85,11.94s-1.61,6.35-3.13,9.06c-1.92,3.33-4.4,5.9-7.45,7.7s-6.43,2.71-10.16,2.71c-4.29,0-8.13-1.21-11.54-3.64-3.4-2.43-5.96-5.78-7.68-10.07-.88-2.34-1.52-4.93-1.93-7.77-.41-2.84-.61-5.91-.61-9.21,0-4.26.23-8.1.68-11.51.45-3.41,1.16-6.35,2.12-8.8,1.67-4.06,4.08-7.16,7.26-9.29,3.18-2.13,6.96-3.2,11.36-3.2,2.91,0,5.55.47,7.92,1.42,2.37.95,4.45,2.33,6.24,4.15,1.79,1.82,3.31,4.07,4.55,6.75,2.14,4.66,3.22,11.25,3.22,19.77Zm-11.6-.85c0-5.16-.31-9.39-.93-12.68-.62-3.29-1.66-5.77-3.13-7.45-1.47-1.68-3.5-2.52-6.1-2.52-3.72,0-6.31,1.88-7.77,5.63-1.45,3.75-2.18,9.54-2.18,17.35,0,5.3.31,9.65.93,13.04.62,3.39,1.66,5.95,3.13,7.68,1.47,1.74,3.46,2.6,5.97,2.6s4.63-.9,6.1-2.71c1.47-1.81,2.5-4.39,3.09-7.75.59-3.36.89-7.76.89-13.21Z"/>
      <path class="cls-1" d="m181.11,152.98v-7.87h-21.25c-2.68,0-4.69-.61-6.03-1.82-1.34-1.21-2.01-2.86-2.01-4.95,0-.54.1-1.08.3-1.63.2-.55.49-1.13.89-1.74.4-.61.8-1.19,1.23-1.76.42-.56.95-1.26,1.57-2.07l22.43-30.01c1.47-1.98,2.67-3.41,3.62-4.3.95-.89,2.08-1.33,3.41-1.33,4.29,0,6.43,2.45,6.43,7.36v32.76h1.82c2.17,0,3.92.3,5.23.89,1.31.59,1.97,1.89,1.97,3.89,0,1.64-.54,2.83-1.61,3.58-1.07.75-2.68,1.12-4.83,1.12h-2.58v7.87c0,2.17-.48,3.79-1.44,4.85-.96,1.06-2.24,1.59-3.85,1.59s-2.86-.54-3.83-1.63-1.46-2.69-1.46-4.8Zm-18.2-17.35h18.2v-24.59l-18.2,24.59Z"/>
    </g>
  </g>
</svg>