<?xml version="1.0" encoding="UTF-8"?>
<svg id="Layer_1" data-name="Layer 1" xmlns="http://www.w3.org/2000/svg" viewBox="0 0 250 250">
  <defs>
    <style>
      .cls-1 {
        fill: #414141;
        fill-rule: evenodd;
      }

      .cls-2 {
        fill: #99cc62;
      }

      .cls-3 {
        fill: none;
      }
    </style>
  </defs>
  <rect class="cls-3" width="250" height="250"/>
  <rect class="cls-3" width="250" height="250"/>
  <g>
    <circle class="cls-2" cx="91.27" cy="115.37" r="46.12"/>
    <g id="Page-1">
      <path id="Cloud" class="cls-1" d="m174.59,171.75h-79.78c-13.93,0-25.27-11.34-25.27-25.27s11.34-25.27,25.27-25.27c4.72,0,9.31,1.31,13.3,3.78,2.11,1.31,4.89.66,6.2-1.45,1.31-2.11.66-4.89-1.45-6.2-4.73-2.94-10.1-4.66-15.65-5.05,6.99-9.98,18.5-16.14,30.96-16.14,20.84,0,37.8,16.96,37.8,37.8,0,1.07-.05,2.15-.14,3.22-.23,2.73-.76,5.42-1.56,8.02-.74,2.37.59,4.9,2.96,5.63.44.14.9.21,1.34.21,1.92,0,3.69-1.24,4.3-3.16,1-3.22,1.65-6.56,1.94-9.94.11-1.32.17-2.66.17-3.98,0-1.59-.08-3.16-.24-4.71,11.66.07,21.12,9.58,21.12,21.25s-9.54,21.26-21.26,21.26m0-51.52c-.56,0-1.11.02-1.67.05-5.86-19.16-23.71-33.13-44.76-33.13-17.87,0-34.18,10.22-42.02,26.17-14.71,3.85-25.6,17.25-25.6,33.16,0,18.9,15.37,34.27,34.27,34.27h79.78c16.68,0,30.26-13.57,30.26-30.26s-13.57-30.26-30.26-30.26"/>
    </g>
  </g>
</svg>