<?xml version="1.0" encoding="UTF-8"?>
<svg id="Layer_1" data-name="Layer 1" xmlns="http://www.w3.org/2000/svg" viewBox="0 0 250 250">
  <defs>
    <style>
      .cls-1 {
        fill: #414141;
        fill-rule: evenodd;
      }

      .cls-2 {
        fill: #f15858;
      }

      .cls-3 {
        fill: none;
      }
    </style>
  </defs>
  <rect class="cls-3" width="250" height="250"/>
  <g>
    <circle class="cls-2" cx="158.65" cy="142.38" r="46.12"/>
    <g id="Page-1">
      <path id="Fog" class="cls-1" d="m161.84,174.02v9h-89.58v-9h89.58Zm-4.5-14.14c2.49,0,4.5,2.02,4.5,4.5s-2.01,4.5-4.5,4.5h-80.58c-2.49,0-4.5-2.01-4.5-4.5s2.01-4.5,4.5-4.5h80.58Zm-44.49-98.38c21.05,0,38.9,13.97,44.76,33.13.56-.03,1.11-.05,1.67-.05,16.68,0,30.26,13.58,30.26,30.26s-13.57,30.26-30.26,30.26h-79.78c-18.9,0-34.27-15.37-34.27-34.27,0-15.9,10.89-29.31,25.6-33.16,7.84-15.96,24.15-26.17,42.02-26.17Zm0,9c-12.46,0-23.97,6.17-30.96,16.14,5.55.39,10.92,2.11,15.65,5.05,2.11,1.31,2.76,4.08,1.45,6.2-1.31,2.11-4.08,2.76-6.2,1.45-3.99-2.47-8.58-3.78-13.3-3.78-13.93,0-25.27,11.34-25.27,25.27s11.34,25.27,25.27,25.27h79.78c11.72,0,21.26-9.54,21.26-21.26s-9.46-21.18-21.12-21.25c.15,1.55.24,3.12.24,4.71,0,1.32-.06,2.65-.17,3.98-.28,3.38-.94,6.72-1.94,9.94-.6,1.93-2.38,3.16-4.3,3.16-.44,0-.89-.07-1.34-.2-2.37-.74-3.7-3.26-2.96-5.63.81-2.6,1.33-5.29,1.56-8.02.09-1.07.14-2.15.14-3.22,0-20.84-16.96-37.8-37.8-37.8Z"/>
    </g>
  </g>
</svg>