<?xml version="1.0" encoding="UTF-8"?>
<svg id="Layer_1" data-name="Layer 1" xmlns="http://www.w3.org/2000/svg" viewBox="0 0 250 250">
  <defs>
    <style>
      .cls-1 {
        fill: #ebadce;
      }

      .cls-2 {
        fill: #424242;
        fill-rule: evenodd;
      }

      .cls-3 {
        fill: none;
      }
    </style>
  </defs>
  <rect class="cls-3" width="250" height="250"/>
  <g>
    <rect class="cls-3" width="250" height="250"/>
    <circle class="cls-1" cx="158.71" cy="96.43" r="46.12"/>
    <g id="Page-1">
      <path id="Snow_1" data-name="Snow 1" class="cls-2" d="m102.5,160.1c2.49,0,4.5,2.01,4.5,4.5h0v3.37l2.98-1.56c2.2-1.15,4.92-.3,6.07,1.9s.3,4.92-1.9,6.08h0l-2.29,1.2,2.24,1.28c2.16,1.23,2.91,3.98,1.68,6.14-.83,1.45-2.35,2.27-3.91,2.27-.76,0-1.52-.19-2.23-.59h0l-2.65-1.51v3.05c0,2.49-2.01,4.5-4.5,4.5s-4.5-2.01-4.5-4.5h0v-3.37l-2.98,1.56c-.67.35-1.38.51-2.08.51-1.62,0-3.19-.88-3.99-2.41-1.15-2.2-.3-4.92,1.9-6.07h0l2.29-1.2-2.24-1.28c-2.16-1.23-2.91-3.98-1.68-6.14s3.98-2.91,6.14-1.68h0l2.65,1.52v-3.05c0-2.49,2.01-4.5,4.5-4.5v-.02Zm44.88,0c2.49,0,4.5,2.01,4.5,4.5h0v3.37l2.98-1.56c2.2-1.15,4.92-.3,6.07,1.9,1.15,2.2.3,4.92-1.9,6.07h0l-2.29,1.2,2.24,1.28c2.16,1.23,2.91,3.98,1.67,6.14-.83,1.45-2.35,2.27-3.91,2.27-.76,0-1.52-.19-2.23-.59h0l-2.65-1.51v3.05c0,2.49-2.01,4.5-4.5,4.5s-4.5-2.01-4.5-4.5h0v-3.37l-2.98,1.56c-.67.35-1.38.51-2.08.51-1.62,0-3.19-.88-3.99-2.41-1.15-2.2-.3-4.92,1.9-6.07h0l2.29-1.2-2.24-1.28c-2.16-1.23-2.91-3.98-1.68-6.14,1.23-2.16,3.98-2.91,6.14-1.68h0l2.65,1.51v-3.05c0-2.49,2.01-4.5,4.5-4.5h0Zm-22.48-27.6c2.49,0,4.5,2.01,4.5,4.5h0v3.37l2.98-1.56c2.2-1.15,4.92-.3,6.08,1.9,1.15,2.2.3,4.92-1.9,6.07h0l-2.29,1.2,2.24,1.28c2.16,1.23,2.91,3.98,1.68,6.14-.83,1.45-2.35,2.27-3.91,2.27-.76,0-1.52-.19-2.23-.59h0l-2.65-1.51v3.05c0,2.49-2.01,4.5-4.5,4.5s-4.5-2.01-4.5-4.5h0v-3.37l-2.98,1.56c-.67.35-1.38.51-2.08.51-1.62,0-3.19-.88-3.99-2.41-1.15-2.2-.3-4.92,1.9-6.07h0l2.29-1.2-2.24-1.28c-2.16-1.23-2.91-3.98-1.68-6.14s3.98-2.91,6.14-1.68h0l2.65,1.51v-3.05c0-2.49,2.01-4.5,4.5-4.5h-.01Zm-4.72-73.21c21.05,0,38.9,13.98,44.76,33.13.56-.03,1.11-.05,1.67-.05,16.68,0,30.26,13.57,30.26,30.26s-13.57,30.26-30.26,30.26c-2.49,0-4.5-2.01-4.5-4.5s2.01-4.5,4.5-4.5c11.72,0,21.26-9.54,21.26-21.26s-9.46-21.18-21.12-21.25c.15,1.55.24,3.12.24,4.71,0,1.32-.06,2.66-.17,3.98-.28,3.38-.94,6.72-1.94,9.94-.6,1.93-2.38,3.16-4.3,3.16-.44,0-.89-.07-1.34-.2-2.37-.74-3.7-3.26-2.96-5.63.81-2.6,1.33-5.29,1.56-8.02.09-1.07.14-2.15.14-3.22,0-20.84-16.96-37.8-37.8-37.8-12.46,0-23.97,6.17-30.96,16.14,5.55.39,10.92,2.11,15.65,5.05,2.11,1.31,2.76,4.08,1.45,6.2-1.31,2.11-4.08,2.76-6.2,1.45-3.99-2.47-8.58-3.78-13.3-3.78-13.93,0-25.27,11.34-25.27,25.27s11.34,25.27,25.27,25.27c2.49,0,4.5,2.01,4.5,4.5s-2.01,4.5-4.5,4.5c-18.9,0-34.27-15.37-34.27-34.27,0-15.9,10.89-29.31,25.6-33.16,7.84-15.96,24.15-26.17,42.02-26.17h.01Z"/>
    </g>
  </g>
</svg>