<?xml version="1.0" encoding="UTF-8"?>
<svg id="Layer_1" data-name="Layer 1" xmlns="http://www.w3.org/2000/svg" viewBox="0 0 250 250">
  <defs>
    <style>
      .cls-1 {
        fill: #414141;
        fill-rule: evenodd;
      }

      .cls-2 {
        fill: none;
      }

      .cls-3 {
        fill: #f1e763;
      }
    </style>
  </defs>
  <g>
    <circle class="cls-3" cx="152.42" cy="105.62" r="46.12"/>
    <g id="Page-1">
      <path id="Sun" class="cls-1" d="m125.37,174.69c2.48,0,4.5,2.01,4.5,4.5v22.07c0,2.49-2.02,4.5-4.5,4.5s-4.5-2.01-4.5-4.5v-22.07c0-2.49,2.01-4.5,4.5-4.5Zm-35.25-14.29c1.76,1.76,1.76,4.61,0,6.36l-15.61,15.61c-.88.88-2.03,1.32-3.18,1.32s-2.3-.44-3.18-1.32c-1.76-1.76-1.76-4.61,0-6.36l15.61-15.61c1.76-1.76,4.61-1.76,6.36,0Zm76.64-.53l15.61,15.61c1.76,1.76,1.76,4.61,0,6.36-.88.88-2.03,1.32-3.18,1.32s-2.3-.44-3.18-1.32l-15.61-15.61c-1.76-1.76-1.76-4.61,0-6.36s4.61-1.76,6.36,0Zm-41.77-77.14c23.31,0,42.27,18.96,42.27,42.27s-18.96,42.27-42.27,42.27-42.27-18.96-42.27-42.27,18.96-42.27,42.27-42.27Zm0,9c-18.34,0-33.27,14.92-33.27,33.27s14.92,33.27,33.27,33.27,33.27-14.92,33.27-33.27-14.92-33.27-33.27-33.27Zm-54.19,29.14c2.49,0,4.5,2.01,4.5,4.5s-2.01,4.5-4.5,4.5h-22.07c-2.49,0-4.5-2.01-4.5-4.5s2.01-4.5,4.5-4.5h22.07Zm134.96-.75v9h-31.07v-9h31.07Zm-131.78-51.97l15.61,15.61c1.76,1.76,1.76,4.61,0,6.36-.88.88-2.03,1.32-3.18,1.32s-2.3-.44-3.18-1.32l-15.61-15.61c-1.76-1.76-1.76-4.61,0-6.36,1.76-1.76,4.61-1.76,6.36,0Zm107.86-.53c1.76,1.76,1.76,4.61,0,6.36l-15.61,15.61c-.88.88-2.03,1.32-3.18,1.32s-2.3-.44-3.18-1.32c-1.76-1.76-1.76-4.61,0-6.36l15.61-15.61c1.76-1.76,4.61-1.76,6.36,0Zm-57.22-23.39c2.49,0,4.5,2.01,4.5,4.5v22.07c0,2.49-2.01,4.5-4.5,4.5s-4.5-2.01-4.5-4.5v-22.07c0-2.49,2.01-4.5,4.5-4.5Z"/>
    </g>
  </g>
  <rect class="cls-2" width="250" height="250"/>
</svg>